<svg width="110" height="42" viewBox="0 0 110 42" fill="none" xmlns="http://www.w3.org/2000/svg">
<path d="M40.865 0.0272339L29.2875 29.7659C25.9325 38.2083 21.8625 41.9664 10.01 41.9664C1.8425 41.9392 0 38.181 0 35.2943C0 32.4076 1.21 29.7387 1.21 29.7387H11.11C10.56 30.1472 9.2125 34.2594 12.87 34.4773C16.8575 34.7224 18.3975 32.7344 19.58 29.7387C31.185 2.59717e-06 30.9925 0 30.9925 0H40.865V0.0272339Z" fill="#AAAAAA"/>
<path d="M78.5675 21.6505H86.295C86.295 21.6505 86.7075 20.9424 86.7075 19.608C86.7075 18.2735 86.2125 14.7332 78.155 14.7332C68.1725 14.7332 63.4975 19.0633 63.4975 24.5917C63.4975 30.12 73.975 30.2017 74.415 33.7965C74.745 36.2747 71.61 36.9283 68.97 36.8738C67.2925 36.8466 65.8625 35.8662 66.77 34.0688H58.9875C58.9875 34.0688 58.52 34.8041 58.52 36.8738C58.52 38.9436 59.7025 41.5852 66.66 41.9392C78.815 42.5656 84.0125 38.29 82.0875 31.8629C80.685 27.1788 71.665 26.498 71.665 22.8487C71.665 20.4522 74.3325 19.8258 76.0925 19.8258C77.5775 19.8531 78.5675 20.2071 78.5675 21.6505Z" fill="#AAAAAA"/>
<path d="M103.757 15.4958L106.315 9.06873H98.5325L95.975 15.4958H91.465L88.7975 21.8139H93.4725L87.8075 36.0841C85.855 41.0133 89.43 41.9665 93.885 41.9665C98.34 41.9665 100.54 41.5308 100.54 41.5308L102.575 36.4654C102.575 36.4654 98.0375 36.7649 96.6625 36.656C95.4525 36.5471 95.975 35.1309 96.0575 34.8858L101.255 21.8411H105.847C107.662 21.8411 108.652 19.3629 108.652 19.3629L110 15.4958H103.757Z" fill="#AAAAAA"/>
<path d="M55.3024 34.4774L62.8649 15.4686H55.0549L48.1249 32.8706C48.0974 32.8979 48.0699 32.8979 48.0699 32.9251C46.5849 36.6288 44.0549 36.9011 41.3324 36.6016C39.5999 36.4109 39.7099 34.4501 40.5074 32.4621L47.2724 15.4686H39.4899L31.9274 34.4774C29.8649 39.6517 32.5874 41.9393 37.2899 41.9393C41.9924 41.9393 45.1274 40.4415 45.1274 40.4415L44.5224 41.9393H51.1224C52.4699 41.9393 53.4599 39.0526 53.4599 39.0526L55.3024 34.4774Z" fill="#AAAAAA"/>
</svg>
