<svg width="33" height="32" viewBox="0 0 33 32" fill="none" xmlns="http://www.w3.org/2000/svg">
<path d="M33 16.2266C33 7.05675 25.1848 -0.329914 15.716 0.0992856C7.21326 0.485906 0.337954 7.27135 0.0124654 15.593C-0.276471 22.9644 4.4875 29.2883 11.187 31.516C11.3489 31.5569 11.5752 31.5875 11.8241 31.5501C12.2923 31.4768 12.4019 31.097 12.4019 30.5469V28.0569C12.4019 27.9036 12.2592 27.7912 12.106 27.8184C8.80589 28.4026 7.44998 27.3228 6.75897 25.6452C6.04707 23.9199 4.89306 23.4498 4.55191 23.116C4.21075 22.7821 4.38481 22.5199 5.23422 22.5199C6.08362 22.5199 6.96958 22.9814 7.7598 24.2741C8.55177 25.5668 9.66922 25.979 10.6335 25.979C11.5978 25.979 12.4089 25.4851 12.4089 25.4851C12.4385 24.9707 12.5812 24.3065 13.1138 23.7121C13.2479 23.5622 13.1608 23.3289 12.9589 23.3084C11.61 23.1688 8.13751 22.5301 6.8077 19.6074C5.26381 16.2147 5.96352 12.9855 7.32292 11.3845C7.52134 11.1495 7.58226 10.8327 7.50394 10.538C7.32988 9.87039 7.11753 8.62196 7.51438 7.39397C7.65015 6.96988 8.07833 6.70078 8.53088 6.73655C9.25496 6.79446 10.4664 7.084 11.9946 8.157C12.2348 8.32561 12.5394 8.38352 12.8266 8.31028C13.448 8.15359 14.703 7.90833 16.4993 7.90833C18.2956 7.90833 19.5505 8.15359 20.1719 8.31028C20.4591 8.38352 20.7637 8.32561 21.0039 8.157C22.5321 7.08229 23.7436 6.79446 24.4677 6.73655C24.9202 6.70078 25.3484 6.96988 25.4842 7.39397C25.8793 8.62196 25.6687 9.87039 25.4946 10.538C25.418 10.8327 25.4772 11.1495 25.6756 11.3845C27.035 12.9855 27.7347 16.213 26.1908 19.6074C24.861 22.5284 21.3903 23.1688 20.0396 23.3084C19.8377 23.3289 19.7507 23.5639 19.8847 23.7138C20.5096 24.4104 20.5966 25.2023 20.5966 25.7388V30.5486C20.5966 31.0987 20.7063 31.4785 21.1745 31.5518C21.4251 31.5909 21.6497 31.5586 21.8115 31.5177C28.3178 29.353 32.9983 23.3255 32.9983 16.2283L33 16.2266Z" fill="#AAAAAA"/>
</svg>
