<svg width="34" height="33" viewBox="0 0 34 33" fill="none" xmlns="http://www.w3.org/2000/svg">
<path d="M23.0681 32.7061H11.5143C5.62126 32.7061 0.829102 27.9906 0.829102 22.1919V10.8229C0.829102 5.02413 5.62126 0.308655 11.5143 0.308655H23.0708C28.9612 0.308655 33.7559 5.02413 33.7559 10.8229V22.1944C33.7559 27.9906 28.9638 32.7086 23.0708 32.7086L23.0681 32.7061ZM11.5143 3.38899C7.34821 3.38899 3.95952 6.72345 3.95952 10.8229V22.1944C3.95952 26.2938 7.34821 29.6283 11.5143 29.6283H23.0708C27.2368 29.6283 30.6255 26.2938 30.6255 22.1944V10.8229C30.6255 6.72345 27.2368 3.38899 23.0708 3.38899H11.5143Z" fill="#AAAAAA"/>
<path d="M17.2924 24.6868C12.7089 24.6868 8.97852 21.0187 8.97852 16.506C8.97852 11.9933 12.7063 8.32513 17.2924 8.32513C21.8785 8.32513 25.6063 11.9933 25.6063 16.506C25.6063 21.0187 21.8785 24.6868 17.2924 24.6868ZM17.2924 11.408C14.4359 11.408 12.1089 13.6952 12.1089 16.5086C12.1089 19.3219 14.4333 21.6091 17.2924 21.6091C20.1515 21.6091 22.4759 19.3219 22.4759 16.5086C22.4759 13.6952 20.1515 11.408 17.2924 11.408Z" fill="#AAAAAA"/>
<path d="M25.9142 10.1269C26.9501 10.1269 27.7899 9.30062 27.7899 8.2813C27.7899 7.26199 26.9501 6.43567 25.9142 6.43567C24.8783 6.43567 24.0386 7.26199 24.0386 8.2813C24.0386 9.30062 24.8783 10.1269 25.9142 10.1269Z" fill="#AAAAAA"/>
</svg>
