<svg width="72" height="72" viewBox="0 0 72 72" fill="none" xmlns="http://www.w3.org/2000/svg">
<path d="M26.748 20.9159L19.17 40.572C16.974 46.152 14.31 48.636 6.552 48.636C1.206 48.618 0 46.1339 0 44.2259C0 42.3179 0.792 40.554 0.792 40.554H7.272C6.912 40.8239 6.03 43.542 8.424 43.6859C11.034 43.8479 12.042 42.534 12.816 40.554C20.412 20.898 20.286 20.8979 20.286 20.8979H26.748V20.9159Z" fill="#FAA71B"/>
<path d="M51.426 35.208H56.484C56.484 35.208 56.754 34.74 56.754 33.858C56.754 32.976 56.43 30.636 51.156 30.636C44.622 30.636 41.562 33.498 41.562 37.152C41.562 40.806 48.42 40.86 48.708 43.236C48.924 44.874 46.872 45.306 45.144 45.27C44.046 45.252 43.11 44.604 43.704 43.416H38.61C38.61 43.416 38.304 43.902 38.304 45.27C38.304 46.638 39.078 48.384 43.632 48.618C51.588 49.032 54.99 46.206 53.73 41.958C52.812 38.862 46.908 38.412 46.908 36C46.908 34.416 48.654 34.002 49.806 34.002C50.778 34.02 51.426 34.254 51.426 35.208Z" fill="#FAA71B"/>
<path d="M67.914 31.1401L69.588 26.8921H64.494L62.82 31.1401H59.868L58.122 35.3161H61.182L57.474 44.7481C56.196 48.0061 58.536 48.6361 61.452 48.6361C64.368 48.6361 65.808 48.3481 65.808 48.3481L67.14 45.0001C67.14 45.0001 64.17 45.1981 63.27 45.1261C62.478 45.0541 62.82 44.1181 62.874 43.9561L66.276 35.3341H69.282C70.47 35.3341 71.118 33.6961 71.118 33.6961L72 31.1401H67.914Z" fill="#FAA71B"/>
<path d="M36.198 43.6861L41.148 31.1221H36.036L31.5 42.6241C31.482 42.6421 31.464 42.6421 31.464 42.6601C30.492 45.1081 28.836 45.2881 27.054 45.0901C25.92 44.9641 25.992 43.6681 26.514 42.3541L30.942 31.1221H25.848L20.898 43.6861C19.548 47.1061 21.33 48.6181 24.408 48.6181C27.486 48.6181 29.538 47.6281 29.538 47.6281L29.142 48.6181H33.462C34.344 48.6181 34.992 46.7101 34.992 46.7101L36.198 43.6861Z" fill="#FAA71B"/>
</svg>
