<svg width="40" height="27" viewBox="0 0 40 27" fill="none" xmlns="http://www.w3.org/2000/svg">
<g clip-path="url(#clip0_38_104)">
<path d="M36.8715 1.87337C35.0847 0.465681 30.2699 0.547456 19.7561 0.547456C9.24228 0.547456 4.43056 0.465681 2.64065 1.87337C0.850741 3.28106 0 5.54738 0 13.7657C0 21.9841 0.850741 24.2504 2.64065 25.6581C4.43056 27.0658 9.24228 26.984 19.7561 26.984C30.2699 26.984 35.0816 27.0658 36.8715 25.6581C38.6615 24.2504 39.5122 21.987 39.5122 13.7657C39.5122 5.54446 38.6615 3.28106 36.8715 1.87337ZM15.5268 17.3288V9.17759C15.5268 8.28975 16.5178 7.72609 17.3319 8.15249L25.1289 12.2266C25.9766 12.6705 25.9766 13.8358 25.1289 14.2768L17.3319 18.3509C16.5178 18.7744 15.5268 18.2108 15.5268 17.3258V17.3288Z" fill="#AAAAAA"/>
</g>
<defs>
<clipPath id="clip0_38_104">
<rect width="39.5122" height="26.4395" fill="white" transform="translate(0 0.547546)"/>
</clipPath>
</defs>
</svg>
